<?xml version="1.0" encoding="UTF-8" standalone="no"?>
<svg width="800" height="800" viewBox="0 0 800 800"
xmlns="http://www.w3.org/2000/svg">
  <!-- Background -->
  <rect width="800" height="800" fill="#f8f7f2" />

  <!-- Golden Ratio Spiral Base -->
  <path d="M400,400
           C400,310 490,310 490,400
           C490,490 400,490 400,400
           C400,310 490,310 490,400
           C490,490 400,490 400,400
           C400,265 535,265 535,400
           C535,535 400,535 400,400
           C400,265 535,265 535,400
           C535,535 400,535 400,400
           C400,200 600,200 600,400
           C600,600 400,600 400,400
           C400,200 600,200 600,400
           C600,600 400,600 400,400"
        fill="none" stroke="#c4a86c" stroke-width="2" opacity="0.3" />

  <!-- Center Bloom Node -->
  <circle cx="400" cy="400" r="50" fill="#558b2f" />
  <circle cx="400" cy="400" r="40" fill="#7cb342" />
  <text x="400" y="405" text-anchor="middle" font-family="Arial"
 font-size="14" fill="white" font-weight="bold">Bloom Origin</text>

  <!-- Resonance Channels -->
  <!-- Channel 1 -->
  <path d="M400,350 C350,320 320,280 330,230" fill="none"
 stroke="#689f38" stroke-width="3" />
  <circle cx="330" cy="230" r="30" fill="#8bc34a" />
  <text x="330" y="235" text-anchor="middle" font-family="Arial"
 font-size="12" fill="white">Chamomile</text>

  <!-- Channel 2 -->
  <path d="M450,370 C500,350 540,320 580,280" fill="none"
 stroke="#689f38" stroke-width="3" />
  <circle cx="580" cy="280" r="30" fill="#8bc34a" />
  <text x="580" y="285" text-anchor="middle" font-family="Arial"
 font-size="12" fill="white">Lavender</text>

  <!-- Channel 3 -->
  <path d="M430,440 C470,480 490,520 500,570" fill="none"
 stroke="#689f38" stroke-width="3" />
  <circle cx="500" cy="570" r="30" fill="#8bc34a" />
  <text x="500" y="575" text-anchor="middle" font-family="Arial"
 font-size="12" fill="white">Echinacea</text>

  <!-- Channel 4 -->
  <path d="M360,430 C320,470 270,490 220,500" fill="none"
 stroke="#689f38" stroke-width="3" />
  <circle cx="220" cy="500" r="30" fill="#8bc34a" />
  <text x="220" y="505" text-anchor="middle" font-family="Arial"
 font-size="12" fill="white">Mint</text>

  <!-- Secondary Connections -->
  <!-- Mint to Chamomile -->
  <path d="M220,500 C240,400 270,300 330,230" fill="none"
 stroke="#aed581" stroke-width="2" stroke-dasharray="5,3" />

  <!-- Lavender to Echinacea -->
  <path d="M580,280 C560,370 530,470 500,570" fill="none"
 stroke="#aed581" stroke-width="2" stroke-dasharray="5,3" />

  <!-- Tertiary Nodes -->
  <!-- Connected to Chamomile -->
  <path d="M330,230 C280,200 260,150 250,100" fill="none"
 stroke="#c5e1a5" stroke-width="2" />
  <circle cx="250" cy="100" r="20" fill="#dcedc8" stroke="#689f38"
 stroke-width="2" />
  <text x="250" y="105" text-anchor="middle" font-family="Arial"
 font-size="10" fill="#558b2f">Lemon Balm</text>

  <!-- Connected to Lavender -->
  <path d="M580,280 C630,260 670,230 710,180" fill="none"
 stroke="#c5e1a5" stroke-width="2" />
  <circle cx="710" cy="180" r="20" fill="#dcedc8" stroke="#689f38"
 stroke-width="2" />
  <text x="710" y="185" text-anchor="middle" font-family="Arial"
 font-size="10" fill="#558b2f">Rosemary</text>

  <!-- Connected to Echinacea -->
  <path d="M500,570 C550,590 590,620 630,660" fill="none"
 stroke="#c5e1a5" stroke-width="2" />
  <circle cx="630" cy="660" r="20" fill="#dcedc8" stroke="#689f38"
 stroke-width="2" />
  <text x="630" y="665" text-anchor="middle" font-family="Arial"
 font-size="10" fill="#558b2f">Ginger</text>

  <!-- Connected to Mint -->
  <path d="M220,500 C180,530 130,550 80,560" fill="none"
 stroke="#c5e1a5" stroke-width="2" />
  <circle cx="80" cy="560" r="20" fill="#dcedc8" stroke="#689f38"
 stroke-width="2" />
  <text x="80" y="565" text-anchor="middle" font-family="Arial"
 font-size="10" fill="#558b2f">Thyme</text>

  <!-- Resonance Fields -->
  <circle cx="400" cy="400" r="250" fill="none" stroke="#33691e"
 stroke-width="1" stroke-dasharray="3,3" opacity="0.4" />
  <circle cx="400" cy="400" r="180" fill="none" stroke="#33691e"
 stroke-width="1" stroke-dasharray="3,3" opacity="0.6" />
  <circle cx="400" cy="400" r="120" fill="none" stroke="#33691e"
 stroke-width="1" stroke-dasharray="3,3" opacity="0.8" />

  <!-- Golden Ratio Markers -->
  <path d="M400,400 L400,150" fill="none" stroke="#c4a86c"
 stroke-width="1" />
  <path d="M400,400 L650,400" fill="none" stroke="#c4a86c"
 stroke-width="1" />
  <path d="M400,400 L400,650" fill="none" stroke="#c4a86c"
 stroke-width="1" />
  <path d="M400,400 L150,400" fill="none" stroke="#c4a86c"
 stroke-width="1" />

  <!-- Phase Indicators -->
  <circle cx="400" cy="150" r="7" fill="#c4a86c" />
  <circle cx="650" cy="400" r="7" fill="#c4a86c" />
  <circle cx="400" cy="650" r="7" fill="#c4a86c" />
  <circle cx="150" cy="400" r="7" fill="#c4a86c" />

  <!-- Document Title -->
  <text x="400" y="60" text-anchor="middle" font-family="Arial"
 font-size="24" fill="#33691e" font-weight="bold">Herbal Resonance
 Pattern Map (HRPM)</text>
  <text x="400" y="90" text-anchor="middle" font-family="Arial"
 font-size="16" fill="#558b2f">Nature's Wisdom Bloom Signature</text>

  <!-- Coherence Metrics -->
  <text x="600" y="750" text-anchor="middle" font-family="Arial"
 font-size="12" fill="#33691e">Bloom Score: 0.923</text>
  <text x="600" y="770" text-anchor="middle" font-family="Arial"
 font-size="12" fill="#33691e">Coherence Index: 0.68</text>

  <!-- Memory Inversion Indicator -->
  <text x="200" y="750" text-anchor="middle" font-family="Arial"
 font-size="12" fill="#33691e">Memory Inversion: ENABLED</text>
  <text x="200" y="770" text-anchor="middle" font-family="Arial"
 font-size="12" fill="#33691e">Genesis Timestamp: 51</text>

  <!-- Genesis Proxis Integration Tag -->
  <text x="400" y="790" text-anchor="middle" font-family="Arial"
 font-size="10" fill="#33691e">Genesis Proxis Compatible | SVG Vector
 Format v1.0</text>
</svg>
