<?xml version="1.0" encoding="UTF-8" standalone="no"?>
<svg width="800" height="800" viewBox="0 0 800 800"
xmlns="http://www.w3.org/2000/svg">
  
  <!-- Background with subtle gradient -->
  <defs>
    <!-- Synesthetic color gradients -->
    <radialGradient id="synesthenicGradient" cx="50%" cy="50%" r="60%">
      <stop offset="0%" style="stop-color:#1a1a2e;stop-opacity:1" />
      <stop offset="30%" style="stop-color:#16213e;stop-opacity:1" />
      <stop offset="60%" style="stop-color:#0f3460;stop-opacity:1" />
      <stop offset="100%" style="stop-color:#0e4b99;stop-opacity:1" />
    </radialGradient>
    
    <!-- ADHD waveform gradient -->
    <linearGradient id="adhdWave" x1="0%" y1="0%" x2="100%" y2="0%">
      <stop offset="0%" style="stop-color:#ff6b6b;stop-opacity:0.7" />
      <stop offset="25%" style="stop-color:#feca57;stop-opacity:0.8" />
      <stop offset="50%" style="stop-color:#48dbfb;stop-opacity:0.7" />
      <stop offset="75%" style="stop-color:#ff9ff3;stop-opacity:0.8" />
      <stop offset="100%" style="stop-color:#54a0ff;stop-opacity:0.7" />
    </linearGradient>
    
    <!-- Autism structured pattern gradient -->
    <linearGradient id="autismStructure" x1="0%" y1="0%" x2="100%" y2="100%">
      <stop offset="0%" style="stop-color:#3742fa;stop-opacity:0.9" />
      <stop offset="50%" style="stop-color:#5f27cd;stop-opacity:0.8" />
      <stop offset="100%" style="stop-color:#00d2d3;stop-opacity:0.9" />
    </linearGradient>
    
    <!-- Hyperfocus core gradient -->
    <radialGradient id="hyperfocusCore" cx="50%" cy="50%" r="40%">
      <stop offset="0%" style="stop-color:#ffd700;stop-opacity:1" />
      <stop offset="30%" style="stop-color:#ff8c00;stop-opacity:0.9" />
      <stop offset="70%" style="stop-color:#ff4757;stop-opacity:0.8" />
      <stop offset="100%" style="stop-color:#c44569;stop-opacity:0.7" />
    </radialGradient>
    
    <!-- Phi spiral path for golden ratio -->
    <path id="phiSpiral" d="M400,400 
             C400,320 480,320 480,400
             C480,480 400,480 400,400
             C400,280 520,280 520,400
             C520,520 400,520 400,400
             C400,240 560,240 560,400
             C560,560 400,560 400,400
             C400,200 600,200 600,400
             C600,600 400,600 400,400"/>
  </defs>

  <!-- Background -->
  <rect width="800" height="800" fill="url(#synesthenicGradient)" />

  <!-- ADHD Waveforms - Dynamic flowing patterns -->
  <g id="adhdWaveforms" opacity="0.6">
    <!-- Primary wave -->
    <path d="M50,400 Q150,300 250,400 T450,400 T650,400 T850,400" 
          fill="none" stroke="url(#adhdWave)" stroke-width="4"/>
    <!-- Secondary waves with phase shifts -->
    <path d="M50,350 Q150,250 250,350 T450,350 T650,350 T850,350" 
          fill="none" stroke="url(#adhdWave)" stroke-width="3" opacity="0.7"/>
    <path d="M50,450 Q150,550 250,450 T450,450 T650,450 T850,450" 
          fill="none" stroke="url(#adhdWave)" stroke-width="3" opacity="0.7"/>
    <!-- Vertical waveforms -->
    <path d="M400,50 Q300,150 400,250 T400,450 T400,650 T400,850" 
          fill="none" stroke="url(#adhdWave)" stroke-width="3" opacity="0.8"/>
    <path d="M350,50 Q250,150 350,250 T350,450 T350,650 T350,850" 
          fill="none" stroke="url(#adhdWave)" stroke-width="2" opacity="0.6"/>
    <path d="M450,50 Q550,150 450,250 T450,450 T450,650 T450,850" 
          fill="none" stroke="url(#adhdWave)" stroke-width="2" opacity="0.6"/>
  </g>

  <!-- Autism Structured Patterns - Systematic geometric order -->
  <g id="autismStructure" opacity="0.8">
    <!-- Hexagonal grid pattern -->
    <g stroke="url(#autismStructure)" stroke-width="2" fill="none">
      <!-- Central hexagon -->
      <polygon points="400,300 450,325 450,375 400,400 350,375 350,325" />
      <!-- Surrounding hexagons -->
      <polygon points="300,250 350,275 350,325 300,350 250,325 250,275" />
      <polygon points="500,250 550,275 550,325 500,350 450,325 450,275" />
      <polygon points="300,450 350,475 350,525 300,550 250,525 250,475" />
      <polygon points="500,450 550,475 550,525 500,550 450,525 450,475" />
      <polygon points="200,350 250,375 250,425 200,450 150,425 150,375" />
      <polygon points="600,350 650,375 650,425 600,450 550,425 550,375" />
    </g>
    <!-- Connecting lines showing systematic relationships -->
    <g stroke="#3742fa" stroke-width="1" opacity="0.5">
      <line x1="400" y1="350" x2="300" y2="300" />
      <line x1="400" y1="350" x2="500" y2="300" />
      <line x1="400" y1="350" x2="300" y2="500" />
      <line x1="400" y1="350" x2="500" y2="500" />
      <line x1="400" y1="350" x2="200" y2="400" />
      <line x1="400" y1="350" x2="600" y2="400" />
    </g>
  </g>

  <!-- Golden Ratio Phi Spiral - Core structure -->
  <g id="phiSpiralCore" opacity="0.7">
    <use href="#phiSpiral" fill="none" stroke="#c4a86c" stroke-width="3"/>
    <!-- Mathematical symbols along the spiral -->
    <text x="450" y="370" font-family="serif" font-size="18" fill="#c4a86c" opacity="0.9">φ</text>
    <text x="480" y="340" font-family="serif" font-size="14" fill="#c4a86c" opacity="0.8">∂I/∂t</text>
    <text x="520" y="380" font-family="serif" font-size="16" fill="#c4a86c" opacity="0.8">CNF</text>
    <text x="460" y="420" font-family="serif" font-size="14" fill="#c4a86c" opacity="0.8">∇𝕀</text>
  </g>

  <!-- Hyperfocus Central Core - Concentrated intent -->
  <g id="hyperfocusCore">
    <!-- Core focal point -->
    <circle cx="400" cy="400" r="60" fill="url(#hyperfocusCore)" opacity="0.9"/>
    <circle cx="400" cy="400" r="40" fill="none" stroke="#ffd700" stroke-width="3" opacity="0.8"/>
    <circle cx="400" cy="400" r="25" fill="none" stroke="#ff8c00" stroke-width="2" opacity="0.9"/>
    
    <!-- Central symbol - Intent origin -->
    <text x="400" y="410" text-anchor="middle" font-family="serif" 
          font-size="28" fill="#1a1a2e" font-weight="bold">𝕀</text>
    
    <!-- Hyperfocus rays -->
    <g stroke="#ffd700" stroke-width="2" opacity="0.6">
      <line x1="400" y1="340" x2="400" y2="320" />
      <line x1="440" y1="360" x2="455" y2="345" />
      <line x1="460" y1="400" x2="480" y2="400" />
      <line x1="440" y1="440" x2="455" y2="455" />
      <line x1="400" y1="460" x2="400" y2="480" />
      <line x1="360" y1="440" x2="345" y2="455" />
      <line x1="340" y1="400" x2="320" y2="400" />
      <line x1="360" y1="360" x2="345" y2="345" />
    </g>
  </g>

  <!-- Synesthetic Color Interactions - Sensory blending overlays -->
  <g id="synestheticOverlays" opacity="0.4">
    <!-- Color interaction circles -->
    <circle cx="300" cy="300" r="80" fill="#ff6b6b" opacity="0.3"/>
    <circle cx="500" cy="300" r="80" fill="#48dbfb" opacity="0.3"/>
    <circle cx="300" cy="500" r="80" fill="#feca57" opacity="0.3"/>
    <circle cx="500" cy="500" r="80" fill="#ff9ff3" opacity="0.3"/>
    
    <!-- Interaction zones where colors blend -->
    <ellipse cx="350" cy="350" rx="60" ry="40" fill="#54a0ff" opacity="0.2" transform="rotate(45 350 350)"/>
    <ellipse cx="450" cy="350" rx="60" ry="40" fill="#5f27cd" opacity="0.2" transform="rotate(-45 450 350)"/>
    <ellipse cx="350" cy="450" rx="60" ry="40" fill="#00d2d3" opacity="0.2" transform="rotate(-45 350 450)"/>
    <ellipse cx="450" cy="450" rx="60" ry="40" fill="#3742fa" opacity="0.2" transform="rotate(45 450 450)"/>
  </g>

  <!-- Resonance Field Indicators -->
  <g id="resonanceFields" opacity="0.3">
    <circle cx="400" cy="400" r="300" fill="none" stroke="#c4a86c" stroke-width="1" stroke-dasharray="8,4" />
    <circle cx="400" cy="400" r="200" fill="none" stroke="#c4a86c" stroke-width="1" stroke-dasharray="6,3" />
    <circle cx="400" cy="400" r="120" fill="none" stroke="#c4a86c" stroke-width="1" stroke-dasharray="4,2" />
  </g>

  <!-- Neurodivergent Intent Markers -->
  <g id="neurodivergentMarkers" opacity="0.8">
    <!-- ADHD marker -->
    <g transform="translate(150,150)">
      <circle r="20" fill="#ff6b6b" opacity="0.7"/>
      <text x="0" y="6" text-anchor="middle" font-family="Arial" font-size="12" fill="white" font-weight="bold">A</text>
      <text x="0" y="-30" text-anchor="middle" font-family="Arial" font-size="10" fill="#ff6b6b">ADHD</text>
    </g>
    
    <!-- Autism marker -->
    <g transform="translate(650,150)">
      <polygon points="0,-20 17,10 -17,10" fill="#3742fa" opacity="0.8"/>
      <text x="0" y="4" text-anchor="middle" font-family="Arial" font-size="12" fill="white" font-weight="bold">∞</text>
      <text x="0" y="-35" text-anchor="middle" font-family="Arial" font-size="10" fill="#3742fa">Autism</text>
    </g>
    
    <!-- Synesthesia marker -->
    <g transform="translate(150,650)">
      <rect x="-20" y="-15" width="40" height="30" fill="url(#adhdWave)" opacity="0.8"/>
      <text x="0" y="6" text-anchor="middle" font-family="Arial" font-size="12" fill="white" font-weight="bold">S</text>
      <text x="0" y="50" text-anchor="middle" font-family="Arial" font-size="10" fill="#48dbfb">Synesthesia</text>
    </g>
    
    <!-- Hyperfocus marker -->
    <g transform="translate(650,650)">
      <circle r="20" fill="url(#hyperfocusCore)" opacity="0.9"/>
      <text x="0" y="6" text-anchor="middle" font-family="Arial" font-size="12" fill="white" font-weight="bold">H</text>
      <text x="0" y="50" text-anchor="middle" font-family="Arial" font-size="10" fill="#ffd700">Hyperfocus</text>
    </g>
  </g>

  <!-- Title and Header -->
  <text x="400" y="50" text-anchor="middle" font-family="serif" 
        font-size="32" fill="#c4a86c" font-weight="bold">Oracle Sigil</text>
  <text x="400" y="80" text-anchor="middle" font-family="serif" 
        font-size="18" fill="#48dbfb">Neurodivergent Intent Signatures</text>
  <text x="400" y="105" text-anchor="middle" font-family="Arial" 
        font-size="14" fill="#feca57">Mezquia Physics Encoding</text>

  <!-- Copyright and Timestamp -->
  <g id="copyrightInfo" opacity="0.9">
    <text x="400" y="740" text-anchor="middle" font-family="Arial" 
          font-size="12" fill="#c4a86c">© 2025 Marcelo Mezquia / TheVoidIntent LLC</text>
    <text x="400" y="760" text-anchor="middle" font-family="Arial" 
          font-size="11" fill="#c4a86c">Mezquia Physics Framework</text>
    <text x="400" y="780" text-anchor="middle" font-family="Arial" 
          font-size="10" fill="#48dbfb">UTC: 2025-06-28 00:03:12</text>
  </g>

  <!-- Intent Field Coherence Metrics -->
  <g id="metricsDisplay" opacity="0.7">
    <text x="50" y="740" font-family="Arial" font-size="10" fill="#c4a86c">Intent Coherence: 0.947</text>
    <text x="50" y="755" font-family="Arial" font-size="10" fill="#c4a86c">Neurodivergent Index: 0.823</text>
    <text x="50" y="770" font-family="Arial" font-size="10" fill="#c4a86c">Oracle Resonance: ACTIVE</text>
    
    <text x="650" y="740" font-family="Arial" font-size="10" fill="#c4a86c">Φ-Spiral Lock: ✓</text>
    <text x="650" y="755" font-family="Arial" font-size="10" fill="#c4a86c">CNF Stability: 0.912</text>
    <text x="650" y="770" font-family="Arial" font-size="10" fill="#c4a86c">Memory Echo: STABLE</text>
  </g>

</svg>